<?xml version="1.0" encoding="UTF-8"?>
<svg width="194px" height="34px" viewBox="0 0 194 34" version="1.1" xmlns="http://www.w3.org/2000/svg" xmlns:xlink="http://www.w3.org/1999/xlink">
    <!-- Generator: Sketch 51.1 (57501) - http://www.bohemiancoding.com/sketch -->
    <title>Logo / 3</title>
    <desc>Created with Sketch.</desc>
    <defs></defs>
    <g id="8---App-Landing-Page" stroke="none" stroke-width="1" fill="none" fill-rule="evenodd">
        <g id="8-1-1-Landing-Page-Home" transform="translate(-135.000000, -235.000000)">
            <g id="Logo-/-3" transform="translate(135.000000, 235.000000)">
                <g>
                    <path d="M62.7785316,16.0382353 C62.7785316,16.4582374 62.9380845,16.7794107 63.2571949,17.0017647 C63.5763054,17.2241188 63.9199577,17.3352941 64.288162,17.3352941 L69.1484354,17.3352941 C70.3512364,17.3352941 71.3760565,17.0202973 72.2229266,16.3902941 C73.0697966,15.760291 73.4932253,14.7905948 73.4932253,13.4811765 C73.4932253,12.1717582 73.0697966,11.202062 72.2229266,10.5720588 C71.3760565,9.94205567 70.3512364,9.62705882 69.1484354,9.62705882 L64.288162,9.62705882 C63.9199577,9.62705882 63.5763054,9.70735214 63.2571949,9.86794118 C62.9380845,10.0285302 62.7785316,10.3435271 62.7785316,10.8129412 L62.7785316,16.0382353 Z M77.7275544,13.4811765 C77.7275544,14.7905948 77.4820885,15.8529371 76.9911494,16.6682353 C76.5002102,17.4835335 75.9601852,18.1505856 75.3710582,18.6694118 C74.7819312,19.1882379 74.2419063,19.6020573 73.7509671,19.9108824 C73.2600279,20.2197074 73.014562,20.5470571 73.014562,20.8929412 C73.014562,21.1400012 73.0268353,21.3252935 73.0513823,21.4488235 C73.223211,21.6958836 73.5239067,22.1158794 73.9534785,22.7088235 C74.3830502,23.3017677 74.8248889,23.925585 75.2790076,24.5802941 C75.7331263,25.2350033 76.1381451,25.8526442 76.4940759,26.4332353 C76.8500068,27.0138264 77.0279696,27.415293 77.0279696,27.6376471 C77.0279696,27.9094131 76.9297833,28.1441167 76.7334076,28.3417647 C76.5370319,28.5394128 76.2977027,28.7061758 76.0154127,28.8420588 C75.7331226,28.9779419 75.4447002,29.0829408 75.1501367,29.1570588 C74.8555732,29.2311768 74.597834,29.2682353 74.3769114,29.2682353 C74.2787236,29.2682353 74.1375807,29.2497061 73.9534785,29.2126471 C73.7693763,29.175588 73.5914135,29.1261768 73.4195848,29.0644118 C73.2477561,29.0026467 73.0882033,28.9285298 72.9409215,28.8420588 C72.7936398,28.7555878 72.6954534,28.6752945 72.6463595,28.6011765 L68.6697722,22.4123529 C68.4733965,22.0911749 68.2279306,21.8379421 67.9333671,21.6526471 C67.6388036,21.467352 67.282878,21.3747059 66.8655797,21.3747059 L63.9936,21.3747059 C63.6744895,21.3747059 63.3922038,21.4858812 63.1467342,21.7082353 C62.9012646,21.9305893 62.7785316,22.2023513 62.7785316,22.5235294 L62.8153519,28.2676471 C62.8153519,28.5394131 62.6987556,28.7432346 62.4655595,28.8791176 C62.2323634,29.0150007 61.9623509,29.1076468 61.6555139,29.1570588 C61.3486769,29.2064708 61.0357079,29.2250001 60.7165975,29.2126471 C60.397487,29.2002941 60.1520211,29.1941176 59.9801924,29.1941176 C59.5138002,29.1941176 59.1578746,29.1076479 58.9124051,28.9347059 C58.6669355,28.7617638 58.5442025,28.4158849 58.5442025,27.8970588 L58.5810228,6.44 C58.5810228,6.16823394 58.6792091,5.95205963 58.8755848,5.79147059 C59.0719605,5.63088155 59.3051531,5.55058824 59.5751696,5.55058824 L69.4798177,5.55058824 C70.6580717,5.55058824 71.750395,5.7358805 72.7568203,6.10647059 C73.7632455,6.47706068 74.6346495,7.00205543 75.3710582,7.68147059 C76.107467,8.36088575 76.6843118,9.18852453 77.1016101,10.1644118 C77.5189084,11.140299 77.7275544,12.2458762 77.7275544,13.4811765 Z M88.029043,6.40294118 C88.029043,6.15588112 88.1579126,5.95823604 88.4156557,5.81 C88.6733988,5.66176396 88.9004547,5.58764706 89.0968304,5.58764706 L105.371382,5.58764706 C105.616852,5.66176508 105.794815,5.80382248 105.905276,6.01382353 C106.015737,6.22382458 106.089377,6.45852811 106.126197,6.71794118 C106.163018,6.97735424 106.175291,7.23676341 106.163018,7.49617647 C106.150744,7.75558953 106.144608,7.99646948 106.144608,8.21882353 C106.144608,8.54000161 106.089378,8.81794 105.978916,9.05264706 C105.868455,9.28735411 105.665946,9.49117561 105.371382,9.66411765 L93.257519,9.66411765 C93.0611433,9.66411765 92.8524973,9.78764582 92.6315747,10.0347059 C92.4106521,10.2817659 92.3001924,10.5041167 92.3001924,10.7017647 L92.3001924,13.8517647 C92.3001924,14.1976488 92.4045154,14.457058 92.6131646,14.63 C92.8218137,14.802942 93.0856895,14.8894118 93.4048,14.8894118 L101.210694,14.8894118 C101.456163,14.8894118 101.634126,15.0067635 101.744587,15.2414706 C101.855049,15.4761776 101.928688,15.7479396 101.965509,16.0567647 C102.002329,16.3655898 102.020739,16.6744102 102.020739,16.9832353 L102.020739,17.6688235 C102.020739,18.3358857 101.738453,18.7682343 101.173873,18.9658824 L93.5152608,18.9658824 C93.2452442,18.9658824 92.9752317,19.0955869 92.7052152,19.355 C92.4351986,19.6144131 92.3001924,19.8799986 92.3001924,20.1517647 L92.3001924,23.7094118 C92.3001924,24.0552958 92.3983788,24.3208814 92.5947544,24.5061765 C92.7911301,24.6914715 93.0611426,24.7841176 93.4048,24.7841176 L105.334562,24.7841176 C105.825501,25.0558837 106.070967,25.5005851 106.070967,26.1182353 C106.070967,26.2911773 106.077104,26.5320573 106.089377,26.8408824 C106.101651,27.1497074 106.083241,27.4523515 106.034147,27.7488235 C105.985053,28.0452956 105.905277,28.3047048 105.794815,28.5270588 C105.684354,28.7494129 105.494118,28.8605882 105.224101,28.8605882 L89.1704709,28.8605882 C88.9740952,28.8605882 88.734766,28.7679421 88.4524759,28.5826471 C88.1701859,28.397352 88.029043,28.1935305 88.029043,27.9711765 L88.029043,6.40294118 Z M121.122268,19.7811765 C121.122268,19.9788245 121.183635,20.151764 121.30637,20.3 C121.429104,20.448236 121.588657,20.5223529 121.785033,20.5223529 L126.461205,20.5223529 C126.633034,20.5223529 126.78645,20.4544124 126.921458,20.3185294 C127.056466,20.1826464 127.12397,20.0282362 127.12397,19.8552941 C127.12397,19.7811761 127.007373,19.44765 126.774177,18.8547059 C126.540981,18.2617617 126.283242,17.6132388 126.000952,16.9091176 C125.718662,16.2049965 125.448649,15.5379443 125.190906,14.9079412 C124.933163,14.277938 124.767474,13.8888243 124.693833,13.7405882 C124.571098,13.5923522 124.386999,13.5182353 124.141529,13.5182353 C124.043341,13.5182353 123.939018,13.5429409 123.828557,13.5923529 C123.718096,13.641765 123.638319,13.7282347 123.589225,13.8517647 C123.540131,13.9505887 123.448082,14.1605866 123.313073,14.4817647 C123.178065,14.8029428 123.018512,15.1735273 122.83441,15.5935294 C122.650308,16.0135315 122.453935,16.4582329 122.245286,16.9276471 C122.036637,17.3970612 121.852538,17.8294098 121.692982,18.2247059 C121.533427,18.620002 121.398421,18.9658809 121.287959,19.2623529 C121.177498,19.558825 121.122268,19.7317645 121.122268,19.7811765 Z M122.631899,6.14352941 C122.754634,5.89646935 122.957143,5.72352991 123.239433,5.62470588 C123.521723,5.52588186 123.773325,5.47647059 123.994248,5.47647059 C124.264265,5.47647059 124.614054,5.51352904 125.043625,5.58764706 C125.473197,5.66176508 125.749346,5.84705734 125.872081,6.14352941 L135.003504,28.0823529 C135.028051,28.1070589 135.040324,28.168823 135.040324,28.2676471 C135.040324,28.5147071 134.942138,28.693823 134.745762,28.805 C134.549386,28.916177 134.316194,28.9902939 134.046177,29.0273529 C133.776161,29.0644119 133.500012,29.0767648 133.217722,29.0644118 C132.935431,29.0520588 132.708376,29.0458824 132.536547,29.0458824 C132.192889,29.0458824 131.800144,28.9964711 131.358299,28.8976471 C130.916453,28.798823 130.609621,28.5517667 130.437792,28.1564706 L129.149084,25.0435294 C129.050896,24.8458814 128.909753,24.6729419 128.725651,24.5247059 C128.541548,24.3764698 128.326766,24.3023529 128.081296,24.3023529 L120.238582,24.3023529 C120.164941,24.3023529 120.066755,24.333235 119.94402,24.395 C119.821285,24.456765 119.698553,24.5247055 119.575818,24.5988235 C119.453083,24.6729415 119.336487,24.7532349 119.226025,24.8397059 C119.115564,24.9261769 119.048061,24.9941174 119.023514,25.0435294 L117.771625,28.1564706 C117.697984,28.3294126 117.562978,28.4776464 117.366603,28.6011765 C117.170227,28.7247065 116.955444,28.8111762 116.722248,28.8605882 C116.489052,28.9100002 116.249723,28.9470587 116.004253,28.9717647 C115.758784,28.9964707 115.550138,29.0088235 115.378309,29.0088235 C115.231027,29.0088235 115.028518,29.0026471 114.770775,28.9902941 C114.513032,28.9779411 114.267566,28.9470591 114.03437,28.8976471 C113.801174,28.848235 113.598664,28.7679417 113.426835,28.6567647 C113.255007,28.5455877 113.169094,28.3911775 113.169094,28.1935294 L122.631899,6.14352941 Z M164.120142,24.5617647 C164.120142,24.6605887 164.095595,24.8088225 164.046501,25.0064706 C162.819153,26.4147129 161.389314,27.4832316 159.756942,28.2120588 C158.124569,28.940886 156.387898,29.3052941 154.546876,29.3052941 C152.853136,29.3052941 151.251471,28.9964737 149.741833,28.3788235 C148.232195,27.7611734 146.918952,26.9150054 145.802066,25.8402941 C144.685179,24.7655829 143.795365,23.4870662 143.132597,22.0047059 C142.46983,20.5223455 142.138451,18.9164792 142.138451,17.1870588 C142.138451,15.4329324 142.46983,13.8147133 143.132597,12.3323529 C143.795365,10.8499926 144.685179,9.57147596 145.802066,8.49676471 C146.918952,7.42205345 148.232195,6.57588544 149.741833,5.95823529 C151.251471,5.34058515 152.853136,5.03176471 154.546876,5.03176471 C155.381473,5.03176471 156.24674,5.12441084 157.142704,5.30970588 C158.038668,5.49500093 158.910072,5.77293932 159.756942,6.14352941 C160.603812,6.5141195 161.395439,6.96499734 162.131848,7.49617647 C162.868257,8.0273556 163.494195,8.63882007 164.009681,9.33058824 C164.107869,9.47882427 164.156962,9.65176372 164.156962,9.84941176 C164.156962,10.3435319 164.015819,10.6832344 163.733529,10.8685294 C163.451239,11.0538245 163.13827,11.2699988 162.794613,11.5170588 C162.57369,11.6652949 162.340497,11.8320579 162.095028,12.0173529 C161.849558,12.202648 161.591819,12.2952941 161.321803,12.2952941 C161.027239,12.2952941 160.720407,12.1285311 160.401296,11.795 C160.082186,11.4614689 159.67103,11.1032372 159.167818,10.7202941 C158.664605,10.337351 158.044804,9.97911931 157.308395,9.64558824 C156.571986,9.31205716 155.651489,9.14529412 154.546876,9.14529412 C153.46681,9.14529412 152.448126,9.36146843 151.490795,9.79382353 C150.533464,10.2261786 149.692743,10.8067611 148.968608,11.5355882 C148.244472,12.2644154 147.673764,13.1167598 147.256466,14.0926471 C146.839168,15.0685343 146.630522,16.0999946 146.630522,17.1870588 C146.630522,18.2741231 146.839168,19.3055834 147.256466,20.2814706 C147.673764,21.2573578 148.244472,22.1097022 148.968608,22.8385294 C149.692743,23.5673566 150.533464,24.147939 151.490795,24.5802941 C152.448126,25.0126492 153.46681,25.2288235 154.546876,25.2288235 C155.72513,25.2288235 156.835863,24.99412 157.879109,24.5247059 C158.922355,24.0552918 159.824442,23.3758868 160.585397,22.4864706 C160.879961,22.3629406 161.149973,22.3011765 161.395443,22.3011765 C161.616366,22.3011765 161.880242,22.369117 162.187078,22.505 C162.493915,22.640883 162.794611,22.8199989 163.089175,23.0423529 C163.383738,23.264707 163.629204,23.5117633 163.82558,23.7835294 C164.021955,24.0552955 164.120142,24.3147046 164.120142,24.5617647 Z M174.42163,6.06941176 C174.568912,5.84705771 174.759148,5.68029467 174.992344,5.56911765 C175.22554,5.45794062 175.48328,5.37764731 175.76557,5.32823529 C176.04786,5.27882328 176.330145,5.25411765 176.612435,5.25411765 L177.367251,5.25411765 C178.005472,5.25411765 178.459583,5.53823245 178.7296,6.10647059 L178.7296,13.6294118 C178.7296,13.9505898 178.827786,14.2347046 179.024162,14.4817647 C179.220538,14.7288248 179.49055,14.8523529 179.834208,14.8523529 L187.934663,14.8523529 C188.278321,14.8523529 188.585153,14.7350012 188.85517,14.5002941 C189.125186,14.2655871 189.260192,13.962943 189.260192,13.5923529 L189.260192,6.10647059 C189.579303,5.63705648 189.965912,5.39000012 190.42003,5.36529412 C190.874149,5.34058811 191.346671,5.32823529 191.83761,5.32823529 C192.205814,5.32823529 192.531057,5.37764656 192.813347,5.47647059 C193.095637,5.57529461 193.347239,5.78529251 193.568162,6.10647059 L193.494522,28.3788235 C193.298146,28.8729436 192.966767,29.1385292 192.500375,29.1755882 C192.033982,29.2126472 191.567597,29.2311765 191.101205,29.2311765 C190.733001,29.2311765 190.401622,29.1817652 190.107058,29.0829412 C189.812495,28.9841172 189.530209,28.7864721 189.260192,28.49 L189.260192,20.2258824 C189.260192,19.8799983 189.143596,19.5835306 188.9104,19.3364706 C188.677204,19.0894105 188.376508,18.9658824 188.008304,18.9658824 L180.16559,18.9658824 C179.797386,18.9658824 179.466007,19.1202926 179.171443,19.4291176 C178.87688,19.7379427 178.7296,20.0652924 178.7296,20.4111765 L178.7296,28.4158824 C178.7296,28.7123544 178.588457,28.9223523 178.306167,29.0458824 C178.023877,29.1694124 177.772275,29.2311765 177.551352,29.2311765 C177.305882,29.2311765 177.023597,29.2373529 176.704486,29.2497059 C176.385376,29.2620589 176.078543,29.2497061 175.78398,29.2126471 C175.489416,29.175588 175.219404,29.0952947 174.973934,28.9717647 C174.728465,28.8482347 174.544365,28.6505896 174.42163,28.3788235 L174.42163,6.06941176 Z" id="Reach" fill="#69A3FF"></path>
                    <path d="M23.6426423,1.2030465 C25.2281572,-0.392741409 27.7958792,-0.402174518 29.3929261,1.18192152 L41.746724,13.435539 C43.3736628,15.1035749 43.3491381,17.7041558 41.7403481,19.2929209 L30.202906,30.6862852 L7.34552937,30.5972601 L3.77213627,27.0566262 C2.1557064,25.4299012 2.1557064,22.8292032 3.74944184,21.2251415 L23.6426423,1.2030465 Z" id="Path" fill="#69A3FF"></path>
                    <path d="M1.4751704,33.4558824 C0.660456284,33.4558824 0,32.8797782 0,32.1691176 C0,31.4584571 0.660456284,30.8823529 1.4751704,30.8823529 L36.87926,30.8823529 C37.6939741,30.8823529 38.3544304,31.4584571 38.3544304,32.1691176 C38.3544304,32.8797782 37.6939741,33.4558824 36.87926,33.4558824 L1.4751704,33.4558824 Z" id="Line" fill="#2B2F6A" fill-rule="nonzero"></path>
                </g>
            </g>
        </g>
    </g>
</svg>